<?xml version="1.0" encoding="utf-8"?>
<!-- Generator: Adobe Illustrator 21.1.0, SVG Export Plug-In . SVG Version: 6.00 Build 0)  -->
<svg version="1.1" id="Capa_1" xmlns="http://www.w3.org/2000/svg" xmlns:xlink="http://www.w3.org/1999/xlink" x="0px" y="0px"
	 viewBox="0 0 1500 700.3" style="enable-background:new 0 0 1500 700.3;" xml:space="preserve">
<style type="text/css">
	.st0{fill:#262729;}
</style>
<g>
	<g>
		<g>
			<path class="st0" d="M69.2,649.3v-94.3h59.4v18.8H90.4V591h35.1v18.8H90.4v20.5h38.1v18.8L69.2,649.3L69.2,649.3z"/>
			<path class="st0" d="M192.5,587.2v62.1h-20.3v-94.3h26.1l31,65v-65h20.3v94.3h-26.2L192.5,587.2z"/>
			<path class="st0" d="M334,573.8v75.5h-21.3v-75.5h-25.4v-18.8h72v18.8H334z"/>
			<path class="st0" d="M397.1,649.3v-94.3h59.4v18.8h-38.1V591h35.1v18.8h-35.1v20.5h38.1v18.8L397.1,649.3L397.1,649.3z"/>
			<path class="st0" d="M533.9,619.9h-12.5v29.3h-21.2v-94.3h39.2c23,0,31.5,9.1,31.5,26.8v11.6c0,11.8-4.3,19.7-13.7,23.7
				l22.8,32.3h-25.2L533.9,619.9z M549.6,583.7c0-7.1-2.7-9.9-11.3-9.9h-16.9v27.8h16.9c9.1,0,11.3-3.3,11.3-10.3V583.7z"/>
			<path class="st0" d="M653.2,573.8v75.5h-21.3v-75.5h-25.4v-18.8h72v18.8H653.2z"/>
			<path class="st0" d="M787,649.3h-22.1l-5.1-18.4h-31.6l-5.1,18.4h-22.1l28.8-94.3h28.3L787,649.3z M733.1,613.1h21.7L744,573.6
				L733.1,613.1z"/>
			<path class="st0" d="M822.2,649.3v-94.3h21.2v94.3H822.2z"/>
			<path class="st0" d="M909.3,587.2v62.1H889v-94.3h26.1l31,65v-65h20.3v94.3h-26.2L909.3,587.2z"/>
			<path class="st0" d="M1029.4,596.9l-1.4,52.4h-20.5l4-94.3h21.2l22.7,60.1l22.7-60.1h21.2l4,94.3h-20.5l-1.4-52.4l-16.4,40.2h-19
				L1029.4,596.9z"/>
			<path class="st0" d="M1147.3,649.3v-94.3h59.4v18.8h-38.1V591h35.1v18.8h-35.1v20.5h38.1v18.8L1147.3,649.3L1147.3,649.3z"/>
			<path class="st0" d="M1270.6,587.2v62.1h-20.3v-94.3h26.1l31,65v-65h20.3v94.3h-26.2L1270.6,587.2z"/>
			<path class="st0" d="M1414.9,573.8v75.5h-21.3v-75.5h-25.4v-18.8h72v18.8H1414.9z"/>
		</g>
	</g>
	<polygon class="st0" points="362.3,62.4 362.3,278.7 578.5,62.4 	"/>
	<polygon class="st0" points="743.7,62.4 362.3,443.8 535.5,443.8 743.7,235.5 743.7,235.5 951.6,443.8 1125.1,443.8 1125.1,237.8 
		1012,237.8 1012,333.8 852.6,174.5 1125.1,174.5 1125.1,62.4 743.7,62.4 743.7,62.4 743.7,62.4 	"/>
</g>
</svg>
